<svg xmlns="http://www.w3.org/2000/svg">
    <symbol id="logout-icon" viewBox="0 0 24 24">
        <path d="M3,3H8V0H3A3,3,0,0,0,0,3V21a3,3,0,0,0,3,3H8V21H3Z"/>
        <path d="M22.948,9.525,18.362,4.939,16.241,7.061l3.413,3.412L5,10.5,5,13.5l14.7-.027-3.466,3.466,2.121,2.122,4.587-4.586A3.506,3.506,0,0,0,22.948,9.525Z"/>
    </symbol>
    <symbol id="profile-icon" viewBox="0 0 24 24">
        <path d="M21,24H18V19a2,2,0,0,0-2-2H8a2,2,0,0,0-2,2v5H3V19a5.006,5.006,0,0,1,5-5h8a5.006,5.006,0,0,1,5,5Z"/>
        <path d="M12,12a6,6,0,1,1,6-6A6.006,6.006,0,0,1,12,12Zm0-9a3,3,0,1,0,3,3A3,3,0,0,0,12,3Z"/>
    </symbol>
    <symbol id="network-icon" viewBox="0 0 24 24">
        <path d="m10.071,19c.089.698.261,1.37.516,2H3v-7.587c.63.255,1.302.428,2,.516v5.071h5.071Zm8.929-14v5.071c.698.089,1.37.261,2,.516V3h-7.587c.255.63.428,1.302.516,2h5.071Zm-13,7c-3.309,0-6-2.691-6-6S2.691,0,6,0s6,2.691,6,6-2.691,6-6,6ZM2,6c0,1.005.385,1.914,1,2.618v-.118c0-.828.672-1.5,1.5-1.5h3c.828,0,1.5.672,1.5,1.5v.118c.615-.703,1-1.612,1-2.618,0-2.206-1.794-4-4-4S2,3.794,2,6Zm4,0c.828,0,1.5-.672,1.5-1.5s-.672-1.5-1.5-1.5-1.5.672-1.5,1.5.672,1.5,1.5,1.5Zm18,12c0,3.309-2.691,6-6,6s-6-2.691-6-6,2.691-6,6-6,6,2.691,6,6Zm-2,0c0-2.206-1.794-4-4-4s-4,1.794-4,4c0,1.005.385,1.914,1,2.618v-.118c0-.828.672-1.5,1.5-1.5h3c.828,0,1.5.672,1.5,1.5v.118c.615-.703,1-1.612,1-2.618Zm-4-3c-.828,0-1.5.672-1.5,1.5s.672,1.5,1.5,1.5,1.5-.672,1.5-1.5-.672-1.5-1.5-1.5Z"/>
    </symbol>
    <symbol id="connections-icon" viewBox="0 0 24 24">
        <path d="M6.349,11H3a1,1,0,0,0-1,1v3H0V12A3,3,0,0,1,3,9H7.537A5.977,5.977,0,0,0,6.349,11ZM21,9H16.463a5.977,5.977,0,0,1,1.188,2H21a1,1,0,0,1,1,1v3h2V12A3,3,0,0,0,21,9Zm-5,4a4,4,0,1,0-4,4A4,4,0,0,0,16,13Zm-2,0a2,2,0,1,1-2-2A2,2,0,0,1,14,13Zm4,8a3,3,0,0,0-3-3H9a3,3,0,0,0-3,3v3H8V21a1,1,0,0,1,1-1h6a1,1,0,0,1,1,1v3h2ZM22,4a4,4,0,1,0-4,4A4,4,0,0,0,22,4ZM20,4a2,2,0,1,1-2-2A2,2,0,0,1,20,4ZM10,4A4,4,0,1,0,6,8,4,4,0,0,0,10,4ZM8,4A2,2,0,1,1,6,2,2,2,0,0,1,8,4Z"/>
    </symbol>
    <symbol id="connect-icon" viewBox="0 0 24 24">
        <path d="M9,12A6,6,0,1,0,3,6,6.006,6.006,0,0,0,9,12ZM9,2A4,4,0,1,1,5,6,4,4,0,0,1,9,2Z"/>
        <polygon points="21 10 21 7 19 7 19 10 16 10 16 12 19 12 19 15 21 15 21 12 24 12 24 10 21 10"/>
        <path d="M13.043,14H4.957A4.963,4.963,0,0,0,0,18.957V24H2V18.957A2.96,2.96,0,0,1,4.957,16h8.086A2.96,2.96,0,0,1,16,18.957V24h2V18.957A4.963,4.963,0,0,0,13.043,14Z"/>
    </symbol>
    <symbol id="view-profile-icon" viewBox="0 0 24 24">
        <path d="M23.821,11.181v0C22.943,9.261,19.5,3,12,3S1.057,9.261.179,11.181a1.969,1.969,0,0,0,0,1.64C1.057,14.739,4.5,21,12,21s10.943-6.261,11.821-8.181A1.968,1.968,0,0,0,23.821,11.181ZM12,19c-6.307,0-9.25-5.366-10-6.989C2.75,10.366,5.693,5,12,5c6.292,0,9.236,5.343,10,7C21.236,13.657,18.292,19,12,19Z"/>
        <path d="M12,7a5,5,0,1,0,5,5A5.006,5.006,0,0,0,12,7Zm0,8a3,3,0,1,1,3-3A3,3,0,0,1,12,15Z"/>
    </symbol>
    <symbol id="ignore-icon" viewBox="0 0 24 24">
        <path d="M23.821,11.181v0a15.736,15.736,0,0,0-4.145-5.44l3.032-3.032L21.293,1.293,18,4.583A11.783,11.783,0,0,0,12,3C4.5,3,1.057,9.261.179,11.181a1.969,1.969,0,0,0,0,1.64,15.736,15.736,0,0,0,4.145,5.44L1.293,21.293l1.414,1.414L6,19.417A11.783,11.783,0,0,0,12,21c7.5,0,10.943-6.261,11.821-8.181A1.968,1.968,0,0,0,23.821,11.181ZM2,12.011C2.75,10.366,5.693,5,12,5a9.847,9.847,0,0,1,4.518,1.068L14.753,7.833a4.992,4.992,0,0,0-6.92,6.92L5.754,16.832A13.647,13.647,0,0,1,2,12.011ZM15,12a3,3,0,0,1-3,3,2.951,2.951,0,0,1-1.285-.3L14.7,10.715A2.951,2.951,0,0,1,15,12ZM9,12a3,3,0,0,1,3-3,2.951,2.951,0,0,1,1.285.3L9.3,13.285A2.951,2.951,0,0,1,9,12Zm3,7a9.847,9.847,0,0,1-4.518-1.068l1.765-1.765a4.992,4.992,0,0,0,6.92-6.92l2.078-2.078A13.584,13.584,0,0,1,22,12C21.236,13.657,18.292,19,12,19Z"/>
    </symbol>
    <symbol id="accept-icon" viewBox="0 0 24 24">
        <path d="m16.298,8.288l1.404,1.425-5.793,5.707c-.387.387-.896.58-1.407.58s-1.025-.195-1.416-.585l-2.782-2.696,1.393-1.437,2.793,2.707,5.809-5.701Zm7.702,3.712c0,6.617-5.383,12-12,12S0,18.617,0,12,5.383,0,12,0s12,5.383,12,12Zm-2,0c0-5.514-4.486-10-10-10S2,6.486,2,12s4.486,10,10,10,10-4.486,10-10Z"/>
    </symbol>
    <symbol id="reject-icon" viewBox="0 0 24 24">
        <polygon points="15.293 7.293 12 10.586 8.707 7.293 7.293 8.707 10.586 12 7.293 15.293 8.707 16.707 12 13.414 15.293 16.707 16.707 15.293 13.414 12 16.707 8.707 15.293 7.293"/>
        <path d="M12,0A12,12,0,1,0,24,12,12.013,12.013,0,0,0,12,0Zm0,22A10,10,0,1,1,22,12,10.011,10.011,0,0,1,12,22Z"/>
    </symbol>
    <symbol id="message-icon" viewBox="0 0 24 24">
        <path d="m21,4h-3v-1c0-1.654-1.346-3-3-3H3C1.346,0,0,1.346,0,3v14.854c0,.794.435,1.52,1.134,1.894.318.171.667.255,1.015.255.416,0,.831-.121,1.19-.36l2.661-1.774v3.131h10.697l3.964,2.643c.36.24.774.361,1.19.361.348,0,.696-.085,1.015-.256.7-.374,1.134-1.1,1.134-1.894V7c0-1.654-1.346-3-3-3ZM2.23,17.979c-.019.012-.075.048-.152.007-.079-.042-.079-.109-.079-.131V3c0-.552.449-1,1-1h12c.551,0,1,.448,1,1v12H6.697l-4.467,2.979Zm19.77,3.876c0,.021,0,.089-.079.131-.079.041-.133.005-.151-.007l-4.467-2.979h-9.303v-2h10V6h3c.551,0,1,.448,1,1v14.854Z"/>
    </symbol>
    <symbol id="remove-icon" viewBox="0 0 24 24">
        <path d="m24 12h-8v-2h8zm-9.026-6a6 6 0 1 0 -6 6 6.006 6.006 0 0 0 6-6zm-2 0a4 4 0 1 1 -4-4 4 4 0 0 1 4 4zm5.026 13a5.006 5.006 0 0 0 -5-5h-8a5.006 5.006 0 0 0 -5 5v5h2v-5a3 3 0 0 1 3-3h8a3 3 0 0 1 3 3v5h2z"/>
    </symbol>
    <symbol id="edit-icon" viewBox="0 0 24 24">
        <path d="M18.656.93,6.464,13.122A4.966,4.966,0,0,0,5,16.657V18a1,1,0,0,0,1,1H7.343a4.966,4.966,0,0,0,3.535-1.464L23.07,5.344a3.125,3.125,0,0,0,0-4.414A3.194,3.194,0,0,0,18.656.93Zm3,3L9.464,16.122A3.02,3.02,0,0,1,7.343,17H7v-.343a3.02,3.02,0,0,1,.878-2.121L20.07,2.344a1.148,1.148,0,0,1,1.586,0A1.123,1.123,0,0,1,21.656,3.93Z"/><path d="M23,8.979a1,1,0,0,0-1,1V15H18a3,3,0,0,0-3,3v4H5a3,3,0,0,1-3-3V5A3,3,0,0,1,5,2h9.042a1,1,0,0,0,0-2H5A5.006,5.006,0,0,0,0,5V19a5.006,5.006,0,0,0,5,5H16.343a4.968,4.968,0,0,0,3.536-1.464l2.656-2.658A4.968,4.968,0,0,0,24,16.343V9.979A1,1,0,0,0,23,8.979ZM18.465,21.122a2.975,2.975,0,0,1-1.465.8V18a1,1,0,0,1,1-1h3.925a3.016,3.016,0,0,1-.8,1.464Z"/>
    </symbol>
</svg>
